<?xml version="1.0" encoding="utf-8"?>
<!-- Generator: Adobe Illustrator 22.0.0, SVG Export Plug-In . SVG Version: 6.00 Build 0)  -->
<svg version="1.1" id="Layer_1" xmlns="http://www.w3.org/2000/svg" xmlns:xlink="http://www.w3.org/1999/xlink" x="0px" y="0px"
	 viewBox="0 0 40 40" style="enable-background:new 0 0 40 40;" xml:space="preserve">
<style type="text/css">
	.st0{fill:#00405C;}
	.st1{fill:#036E93;}
	.st2{fill:#0D9DC3;}
	.st3{fill:#405469;}
</style>
<title>Asset 18</title>
<rect x="8.4" y="11.2" transform="matrix(0.7305 -0.6829 0.6829 0.7305 -3.2432 14.9459)" class="st0" width="17.8" height="0.8"/>
<rect x="16.7" y="15.3" transform="matrix(0.7471 -0.6647 0.6647 0.7471 -12.1006 17.6135)" class="st0" width="0.8" height="18.9"/>
<path class="st1" d="M28.2,5.5c0,2.4-2,4.4-4.4,4.4c-2.4,0-4.4-2-4.4-4.4c0-2.4,2-4.4,4.4-4.4C26.2,1.1,28.2,3.1,28.2,5.5"/>
<path class="st2" d="M16.3,17.7c0,3-2.4,5.5-5.5,5.5c-3,0-5.5-2.4-5.5-5.5c0-3,2.4-5.5,5.5-5.5C13.8,12.2,16.3,14.6,16.3,17.7"/>
<path class="st3" d="M30,31.8c0,3.6-3,6.6-6.6,6.6c-3.6,0-6.6-2.9-6.6-6.6c0-3.6,3-6.6,6.6-6.6C27,25.2,30,28.1,30,31.8"/>
</svg>
