<svg xmlns="http://www.w3.org/2000/svg" viewBox="0 0 24.49 24.49"><defs><style>.cls-1{fill:#999;}</style></defs><title>Asset 12</title><g id="Layer_2" data-name="Layer 2"><g id="Layer_1-2" data-name="Layer 1"><path class="cls-1" d="M21.4,20.36a12.21,12.21,0,0,0-.24-16.49h0A12.21,12.21,0,0,0,12.67,0h-.85A12.21,12.21,0,0,0,3.33,3.86h0a12.21,12.21,0,0,0-.24,16.49h0l0,0a12.21,12.21,0,0,0,8.7,4.08h.85a12.21,12.21,0,0,0,8.71-4.09l0,0ZM.85,12.66H5.92a15.6,15.6,0,0,0,1,5.16,15.57,15.57,0,0,0-3.42,1.74A11.35,11.35,0,0,1,.85,12.66Zm2.89-8A15.53,15.53,0,0,0,7.08,6.29a15.59,15.59,0,0,0-1.16,5.53H.85A11.35,11.35,0,0,1,3.75,4.65Zm19.88,7.17H18.56A15.59,15.59,0,0,0,17.4,6.29a15.53,15.53,0,0,0,3.34-1.64A11.35,11.35,0,0,1,23.63,11.82ZM11.82,6.32a14.76,14.76,0,0,1-3.58-.54,14.77,14.77,0,0,1,3.58-4.66Zm0,.84v4.66H6.77A14.74,14.74,0,0,1,7.89,6.55,15.6,15.6,0,0,0,11.82,7.16Zm.84,0a15.59,15.59,0,0,0,3.93-.61,14.74,14.74,0,0,1,1.13,5.27H12.66Zm0-.84V1.12a14.77,14.77,0,0,1,3.58,4.66A14.76,14.76,0,0,1,12.66,6.32Zm4.39-.8A15.59,15.59,0,0,0,13.73.94,11.37,11.37,0,0,1,20.14,4,14.68,14.68,0,0,1,17.06,5.52Zm-9.63,0A14.67,14.67,0,0,1,4.35,4,11.36,11.36,0,0,1,10.76.94,15.58,15.58,0,0,0,7.43,5.52Zm-.66,7.15h5.05V16.9a15.57,15.57,0,0,0-4.08.65A14.74,14.74,0,0,1,6.77,12.66Zm5.05,5.08v5.62a14.76,14.76,0,0,1-3.75-5A14.72,14.72,0,0,1,11.82,17.75Zm.84,5.62V17.75a14.72,14.72,0,0,1,3.75.59A14.76,14.76,0,0,1,12.66,23.37Zm0-6.47V12.66h5.05a14.74,14.74,0,0,1-1,4.89A15.55,15.55,0,0,0,12.66,16.9Zm5.9-4.24h5.07A11.34,11.34,0,0,1,21,19.57a15.57,15.57,0,0,0-3.42-1.74A15.59,15.59,0,0,0,18.56,12.66ZM4.09,20.2a14.71,14.71,0,0,1,3.17-1.6,15.58,15.58,0,0,0,3.49,4.94A11.37,11.37,0,0,1,4.09,20.2Zm9.64,3.34a15.57,15.57,0,0,0,3.49-4.94,14.72,14.72,0,0,1,3.17,1.6A11.37,11.37,0,0,1,13.73,23.54Z"/></g></g></svg>